<?xml version="1.0" encoding="UTF-8"?>
<!DOCTYPE svg PUBLIC "-//W3C//DTD SVG 1.1//EN" "http://www.w3.org/Graphics/SVG/1.1/DTD/svg11.dtd">
<!-- Creator: CorelDRAW X8 -->
<svg xmlns="http://www.w3.org/2000/svg" xml:space="preserve" width="162.56mm" height="91.44mm" version="1.1" style="shape-rendering:geometricPrecision; text-rendering:geometricPrecision; image-rendering:optimizeQuality; fill-rule:evenodd; clip-rule:evenodd"
viewBox="0 0 16256 9144"
 xmlns:xlink="http://www.w3.org/1999/xlink">
 <defs>
  <style type="text/css">
   <![CDATA[
    .fil0 {fill:white}
   ]]>
  </style>
 </defs>
 <g id="Camada_x0020_1">
  <metadata id="CorelCorpID_0Corel-Layer"/>
  <g id="_1812345654272">
   <path class="fil0" d="M14275 7377l0 -5592c0,-271 224,-494 494,-494 302,0 731,-48 916,108 92,77 143,203 143,333l0 5839c0,153 -129,282 -282,282l-812 0c-284,0 -459,-187 -459,-476zm-1181 -5645l0 5698c0,999 463,1499 1464,1499l2752 0c433,0 370,-404 370,-706 0,-443 -379,-325 -536,-416 -66,-39 -116,-116 -130,-187 -20,-98 -4,-4639 -4,-5094 0,-1242 116,-2311 -1535,-2311 -421,0 -1180,-35 -1537,86 -653,220 -844,755 -844,1431z"/>
   <path class="fil0" d="M9654 4413l0 -2628c0,-271 223,-494 494,-494 272,0 480,-38 662,131 63,59 149,197 149,310l0 2699c0,130 -139,247 -317,247l-688 0c-169,0 -300,-135 -300,-265zm-1182 -2646l0 6809c0,436 429,353 829,353 410,0 353,-362 353,-617l0 -1941c0,-144 -24,-339 24,-452 50,-119 149,-183 311,-183l635 0c429,0 335,379 335,618 0,316 -34,2218 35,2382 109,262 459,193 830,193 168,0 317,-130 317,-300l0 -7056c0,-404 -138,-763 -401,-1028 -392,-395 -1170,-330 -1751,-330 -241,0 -496,26 -673,86 -658,222 -844,756 -844,1466z"/>
   <path class="fil0" d="M18209 515l0 6950c0,349 133,833 375,1072 153,151 209,205 431,292 366,143 1088,100 1523,100 458,0 777,-102 1071,-392 217,-215 375,-660 375,-1090l0 -6932c0,-374 -495,-300 -811,-300 -452,0 -353,441 -353,688l0 6333c3,731 -398,617 -988,617 -324,0 -455,-255 -459,-581l0 -6351c0,-271 98,-706 -352,-706 -317,0 -812,-74 -812,300z"/>
   <path class="fil0" d="M25300 973c0,438 151,462 303,651 443,550 713,1355 773,2066 7,83 11,170 23,260l30 551c0,258 -58,881 -95,1104 -119,712 -293,1172 -616,1784 -236,447 -418,413 -418,887 0,314 323,653 653,653 394,0 535,-142 758,-459 268,-378 464,-782 638,-1214 137,-341 256,-738 337,-1145 84,-422 137,-869 154,-1324l0 -625c-43,-1160 -335,-2325 -970,-3224l-321 -384c-516,-506 -1249,-113 -1249,419z"/>
   <path class="fil0" d="M-10420 1891l0 5433c0,371 216,652 617,652l494 0c223,0 406,-210 406,-441l0 -1481c0,-181 -99,-313 -219,-382 -129,-74 -381,-9 -381,-218 0,-315 -65,-653 159,-653l1199 0c99,0 177,78 177,177l0 3634c0,49 -32,109 -57,137 -37,41 -82,57 -155,57l-1958 0c-769,0 -1217,-433 -1217,-1182l0 -5945c0,-401 105,-778 295,-992 383,-431 1037,-349 1663,-349 443,0 807,85 1045,296 475,422 384,1112 384,1768 0,111 -98,177 -212,177l-529 0c-421,0 32,-866 -392,-1267 -181,-171 -438,-144 -684,-144 -428,0 -635,296 -635,723zm309 -1782l412 0c78,4 99,18 195,18 451,1 871,-8 1249,304 171,141 288,283 378,504 180,447 138,973 138,1467 0,134 -79,239 -154,305 -174,153 -852,113 -970,61 -246,-108 -270,-297 -270,-577 1,-251 79,-794 -335,-794 -438,0 -726,-77 -723,529l0 3987c0,167 -18,262 -18,423 6,1506 -91,1411 900,1411 99,0 176,-77 176,-176l0 -1553c0,-200 -259,-165 -367,-214 -109,-49 -232,-191 -232,-350 0,-288 -45,-582 110,-754 51,-56 175,-128 278,-128l1199 0c214,0 406,197 406,441l0 3352c0,178 -4,372 -80,484 -74,108 -206,186 -379,186l-1781 0c-565,0 -1050,-97 -1359,-564 -51,-77 -95,-158 -130,-258 -64,-185 -116,-402 -116,-642l0 -5768c0,-475 63,-889 337,-1233 262,-330 643,-440 1136,-461z"/>
   <path class="fil0" d="M-5128 8735l-1006 0c-464,0 -811,-165 -998,-448 -208,-313 -272,-683 -272,-1193l0 -4304c0,-103 91,-194 194,-194 202,0 593,-35 692,49 83,70 49,363 49,533l0 3811c0,991 347,917 1129,917 220,0 387,-125 469,-271 101,-180 78,-414 78,-682l1 -4161c12,-106 75,-196 193,-196 241,0 635,-47 717,77 27,40 41,125 41,188l0 4110c0,513 -42,955 -243,1274 -193,307 -550,490 -1044,490zm-2488 -6015l0 4657c0,607 269,1276 898,1484 429,142 993,103 1466,103 423,0 920,-84 1200,-406 288,-331 423,-731 423,-1199l0 -4604c0,-295 -289,-388 -547,-388 -337,0 -655,-44 -794,246 -72,150 -35,526 -35,742 0,1266 15,2606 1,3864 -6,560 -303,458 -900,458 -231,0 -330,-194 -336,-423 -18,-691 0,-1619 0,-2329 0,-512 0,-1023 0,-1535 0,-189 31,-615 -23,-752 -126,-315 -488,-271 -806,-271 -140,0 -281,14 -366,75 -71,50 -181,168 -181,278z"/>
   <path class="fil0" d="M6320 8806l-1958 0c-136,0 -212,-91 -212,-194l0 -5875c0,-123 102,-194 230,-194 511,0 1820,-43 2254,74 396,107 661,333 813,705 66,162 125,408 125,633l0 3845c0,272 -146,617 -363,766 -231,160 -507,240 -889,240zm-2399 -5998l0 5733c0,319 175,494 494,494l1764 0c678,0 1219,-141 1488,-700 75,-157 135,-380 135,-605l0 -3722c0,-983 -608,-1676 -1606,-1676l-1887 0c-227,0 -388,223 -388,476z"/>
   <path class="fil0" d="M-3258 7782l0 -4004c0,-369 151,-748 348,-921 430,-378 1122,-296 1768,-296 910,0 1306,468 1306,1376l0 4869 -812 0c-88,0 -102,-51 -159,-89 -56,38 -70,89 -158,89l-1200 0c-588,0 -1093,-508 -1093,-1024zm-230 -3951l0 3916c0,439 243,779 506,994 250,203 557,294 905,294l1059 0c100,0 139,-35 211,-35 73,0 111,35 212,35l935 0c41,0 53,-12 53,-53l0 -4939c0,-1291 -551,-1711 -1764,-1711 -520,0 -1262,-40 -1645,330 -163,157 -246,242 -338,473 -75,187 -134,444 -134,696z"/>
   <path class="fil0" d="M3339 3496c-232,0 -1550,8 -1641,-35l0 4886c0,543 12,476 -723,476 -150,0 -229,-79 -229,-229l0 -5821c0,-303 310,-230 723,-230 119,0 145,44 212,89 67,-45 92,-89 211,-89l1447 0c303,0 229,311 229,724 0,150 -79,229 -229,229zm-2805 -794l0 5962c0,185 186,371 371,371l635 0c184,0 370,-186 370,-371l0 -4956 1499 0c185,0 371,-186 371,-371l0 -635c0,-184 -186,-370 -371,-370l-1587 0c-77,0 -97,27 -141,27 -45,0 -65,-27 -141,-27l-635 0c-185,0 -371,186 -371,370z"/>
   <path class="fil0" d="M23184 6301l0 2258c0,184 185,370 370,370l423 0c185,0 371,-186 371,-370l0 -2258c0,-185 -186,-371 -371,-371l-423 0c-185,0 -370,186 -370,371z"/>
   <path class="fil0" d="M22866 1556l0 176c0,388 424,811 811,811l177 0c387,0 811,-423 811,-811l0 -176c0,-388 -424,-812 -811,-812l-177 0c-387,0 -811,424 -811,812z"/>
   <path class="fil0" d="M6108 7730l-617 0c-89,0 -177,-88 -177,-177l0 -3757c0,-243 408,-177 706,-177 331,0 406,253 406,583l0 3192c0,237 -83,336 -318,336zm-1023 -3881l0 3669c0,252 189,441 441,441 340,0 694,44 932,-109 91,-58 179,-191 179,-332l0 -3475c0,-449 -295,-653 -723,-653 -329,0 -829,-58 -829,459z"/>
   <path class="fil0" d="M-2112 7306l0 -3228c0,-532 442,-459 741,-459 192,0 370,179 370,371l0 3563c0,263 -380,194 -688,194 -254,0 -423,-186 -423,-441zm-212 -3334l0 3440c0,183 123,311 225,411 191,187 546,153 816,153 293,0 512,-170 512,-458l0 -3475c0,-373 -280,-653 -653,-653 -271,0 -498,-26 -702,163 -94,87 -198,244 -198,419z"/>
  </g>
 </g>
</svg>
